<svg width="212" height="40" xmlns="http://www.w3.org/2000/svg">
  <g fill="none" fill-rule="evenodd">
    <rect fill="#167FFC" width="212" height="40" rx="3"/>
    <path d="M58.39 26v-3.03h2.37c.9 0 1.7-.15 2.38-.45a3.43 3.43 0 0 0 2.09-3.28 3.6 3.6 0 0 0-.54-2 3.46 3.46 0 0 0-1.55-1.29 5.81 5.81 0 0 0-2.38-.45h-4.32V26h1.95Zm2.28-4.68h-2.28v-4.17h2.28c.85 0 1.5.18 1.93.54.44.36.66.88.66 1.54 0 .68-.22 1.19-.66 1.55-.44.36-1.08.54-1.93.54Zm8.9 4.79c.6 0 1.1-.1 1.53-.28.43-.19.75-.45.98-.8V26h1.77v-4.7c0-1.14-.31-1.99-.93-2.55-.63-.57-1.53-.85-2.71-.85-.66 0-1.29.09-1.88.26-.59.16-1.1.41-1.51.73l.73 1.36c.3-.25.67-.44 1.1-.58a4.3 4.3 0 0 1 1.33-.21c.66 0 1.16.15 1.5.45.33.3.5.73.5 1.29v.12H69.9c-1.15 0-2 .22-2.53.65-.53.44-.8 1.02-.8 1.73 0 .46.12.88.36 1.24.25.37.6.65 1.05.86.45.2.97.3 1.57.3Zm.38-1.37c-.48 0-.85-.1-1.12-.3a.96.96 0 0 1-.4-.81c0-.71.53-1.06 1.61-1.06h1.94v.93c-.15.4-.41.7-.78.92-.36.21-.78.32-1.25.32ZM78.13 26v-3.89c0-.8.2-1.4.61-1.83.41-.43.98-.64 1.71-.64.13 0 .28.02.44.04V17.9c-1.36 0-2.31.42-2.85 1.26v-1.17h-1.79V26h1.88Zm6.84.1c.6 0 1.11-.09 1.53-.27.43-.19.76-.45.99-.8V26h1.77v-4.7c0-1.14-.32-1.99-.94-2.55-.63-.57-1.53-.85-2.7-.85-.67 0-1.3.09-1.88.26-.6.16-1.1.41-1.52.73l.74 1.36c.3-.25.67-.44 1.1-.58a4.3 4.3 0 0 1 1.33-.21c.66 0 1.16.15 1.49.45.34.3.5.73.5 1.29v.12h-2.07c-1.15 0-1.99.22-2.53.65-.53.44-.8 1.02-.8 1.73 0 .46.13.88.37 1.24.25.37.6.65 1.04.86.45.2.98.3 1.58.3Zm.39-1.36c-.48 0-.86-.1-1.13-.3a.96.96 0 0 1-.4-.81c0-.71.54-1.06 1.62-1.06h1.93v.93c-.15.4-.4.7-.77.92-.36.21-.78.32-1.25.32ZM93.53 26V14.87h-1.87V26h1.87Zm4.34 0V14.87h-1.88V26h1.88Zm6.22.1c.7 0 1.31-.1 1.86-.33.55-.21 1-.54 1.37-.97l-1-1.16c-.58.59-1.3.88-2.18.88-.7 0-1.27-.18-1.73-.52a2.18 2.18 0 0 1-.87-1.4h6.29l.03-.56c0-.82-.17-1.54-.52-2.17a3.67 3.67 0 0 0-1.44-1.45 4.2 4.2 0 0 0-2.1-.52c-.78 0-1.5.18-2.12.53-.63.34-1.13.83-1.48 1.46a4.2 4.2 0 0 0-.53 2.1c0 .8.18 1.5.55 2.13.36.62.88 1.11 1.55 1.46.67.35 1.44.53 2.32.53Zm1.98-4.75h-4.54c.09-.59.34-1.06.75-1.42.42-.35.93-.53 1.53-.53s1.12.18 1.53.54c.4.36.65.83.73 1.41Zm5.46 4.65V14.87h-1.87V26h1.87Zm8.73 0v-3.03h2.37c.91 0 1.7-.15 2.38-.45a3.38 3.38 0 0 0 2.09-3.28 3.6 3.6 0 0 0-.54-2 3.46 3.46 0 0 0-1.55-1.29 5.81 5.81 0 0 0-2.38-.45h-4.32V26h1.95Zm2.28-4.68h-2.28v-4.17h2.28c.85 0 1.5.18 1.94.54.44.36.66.88.66 1.54 0 .68-.22 1.19-.66 1.55-.44.36-1.09.54-1.94.54Zm8.9 4.79c.6 0 1.11-.1 1.53-.28.43-.19.76-.45.99-.8V26h1.77v-4.7c0-1.14-.31-1.99-.94-2.55-.63-.57-1.53-.85-2.7-.85-.67 0-1.3.09-1.88.26-.6.16-1.1.41-1.52.73l.74 1.36c.3-.25.66-.44 1.1-.58a4.3 4.3 0 0 1 1.33-.21c.66 0 1.15.15 1.49.45.34.3.5.73.5 1.29v.12h-2.07c-1.15 0-1.99.22-2.53.65-.53.44-.8 1.02-.8 1.73 0 .46.13.88.37 1.24.25.37.6.65 1.04.86.45.2.98.3 1.58.3Zm.39-1.37c-.48 0-.86-.1-1.13-.3a.96.96 0 0 1-.4-.81c0-.71.54-1.06 1.62-1.06h1.93v.93c-.15.4-.4.7-.77.92-.37.21-.78.32-1.25.32Zm8.77 1.37c1.12 0 2-.23 2.66-.68.65-.45.97-1.05.97-1.8 0-.57-.14-1.01-.44-1.32a2.5 2.5 0 0 0-1.06-.66c-.4-.13-.93-.24-1.57-.34a7.27 7.27 0 0 1-1.42-.36c-.3-.12-.46-.34-.46-.63 0-.27.15-.5.43-.66.28-.16.7-.25 1.25-.25.85 0 1.62.2 2.3.6l.72-1.42c-.35-.21-.8-.38-1.35-.5a7.42 7.42 0 0 0-1.65-.19c-1.08 0-1.94.23-2.57.68a2.13 2.13 0 0 0-.96 1.83c0 .57.16 1.03.46 1.35.3.33.66.55 1.08.68.41.13.95.25 1.61.35.63.1 1.09.2 1.38.32.28.1.42.3.42.58 0 .59-.56.88-1.68.88a5.4 5.4 0 0 1-2.79-.79l-.72 1.42c.37.27.87.48 1.49.65.62.17 1.25.25 1.9.25Zm7.73 0c1.12 0 2-.23 2.65-.68a2.1 2.1 0 0 0 .98-1.8c0-.57-.15-1.01-.45-1.32a2.41 2.41 0 0 0-1.05-.66 11.1 11.1 0 0 0-1.58-.34 7.27 7.27 0 0 1-1.41-.36c-.31-.12-.46-.34-.46-.63 0-.27.14-.5.43-.66.28-.16.7-.25 1.25-.25.85 0 1.61.2 2.3.6l.71-1.42c-.35-.21-.8-.38-1.35-.5a7.42 7.42 0 0 0-1.65-.19c-1.08 0-1.94.23-2.57.68a2.13 2.13 0 0 0-.95 1.83c0 .57.15 1.03.45 1.35.31.33.67.55 1.09.68.41.13.95.25 1.6.35.64.1 1.1.2 1.38.32.29.1.43.3.43.58 0 .59-.56.88-1.68.88a5.4 5.4 0 0 1-2.8-.79l-.71 1.42c.37.27.86.48 1.48.65.62.17 1.26.25 1.9.25Zm7.12 2.8v-3.89a3.23 3.23 0 0 0 2.57 1.09c.78 0 1.47-.18 2.09-.52.61-.34 1.1-.82 1.45-1.44.35-.63.52-1.34.52-2.15 0-.82-.17-1.53-.52-2.15a3.68 3.68 0 0 0-1.45-1.44 4.25 4.25 0 0 0-3.6-.23 2.9 2.9 0 0 0-1.15.86v-1.05h-1.78v10.92h1.87Zm2.36-4.41a2.22 2.22 0 0 1-2.07-1.18 2.68 2.68 0 0 1-.32-1.32c0-.5.1-.95.32-1.32.2-.38.5-.68.85-.88.36-.2.77-.31 1.22-.31.69 0 1.25.23 1.7.69.45.46.67 1.07.67 1.82a2.5 2.5 0 0 1-.67 1.81c-.44.46-1.01.69-1.7.69Zm9.66 1.6c.82 0 1.55-.17 2.2-.52a3.83 3.83 0 0 0 1.53-1.46c.36-.63.54-1.34.54-2.13 0-.79-.18-1.49-.55-2.11a3.84 3.84 0 0 0-1.52-1.45 4.58 4.58 0 0 0-2.2-.53c-.81 0-1.54.18-2.2.53-.64.34-1.15.83-1.52 1.45a4.09 4.09 0 0 0-.54 2.12 3.9 3.9 0 0 0 2.07 3.58c.65.35 1.38.53 2.19.53Zm0-1.6c-.7 0-1.26-.23-1.7-.69a2.5 2.5 0 0 1-.67-1.81c0-.75.22-1.36.66-1.82a2.27 2.27 0 0 1 1.7-.69c.7 0 1.27.23 1.72.69.45.46.67 1.07.67 1.82s-.22 1.35-.67 1.81a2.3 2.3 0 0 1-1.71.69Zm7.95 1.5v-3.89c0-.8.2-1.4.61-1.83.41-.43.98-.64 1.71-.64.13 0 .28.02.44.04V17.9c-1.36 0-2.31.42-2.85 1.26v-1.17h-1.79V26h1.88Zm7.44.1c.35 0 .68-.04 1-.13.31-.09.58-.22.8-.4l-.53-1.34c-.28.22-.63.33-1.05.33-.36 0-.63-.1-.82-.3-.2-.21-.29-.51-.29-.9v-3.81h2.15v-1.5h-2.15v-1.83h-1.87v1.83h-1.32v1.5h1.32v3.86c0 .88.24 1.54.72 2 .48.46 1.16.7 2.04.7Z" fill="#FFF" fill-rule="nonzero"/>
    <g stroke="#FFF">
      <path stroke-width=".9" stroke-linecap="square" d="M12.5 10v20m24-20v20"/>
      <g transform="translate(20 13)">
        <path d="M.29.12h1v14.33h-1z"/>
        <ellipse stroke-width="1.7" cx="5.45" cy="4.97" rx="4.54" ry="4.75"/>
      </g>
    </g>
  </g>
</svg>